<svg xmlns="http://www.w3.org/2000/svg" width="71.5mm" height="71.480003mm" viewBox="0 0 71.5 71.480003"><defs><clipPath id="e" clipPathUnits="userSpaceOnUse"><path d="M436.792 559.352c-4.271-.781-8.02-4.534-8.806-8.804-1.946-14.484-1.946-28.708 0-43.192.786-4.272 4.535-8.019 8.806-8.805 14.491-1.944 28.718-1.944 43.211 0 4.271.786 8.019 4.533 8.803 8.805 1.946 14.484 1.946 28.708 0 43.192-.784 4.27-4.532 8.023-8.803 8.804a161.722 161.722 0 0 1-21.602 1.458c-7.18 0-14.363-.486-21.609-1.458"/></clipPath><clipPath id="g" clipPathUnits="userSpaceOnUse"><path d="M438.114 557.376c-4.017-.737-7.533-4.258-8.272-8.269-1.828-13.602-1.825-26.956 0-40.558.739-4.01 4.255-7.527 8.272-8.265 13.607-1.824 26.962-1.824 40.569 0 4.015.738 7.535 4.255 8.266 8.265 1.832 13.602 1.832 26.956 0 40.558-.731 4.011-4.251 7.532-8.266 8.269-6.8.913-13.537 1.369-20.275 1.369-6.744 0-13.487-.457-20.294-1.369"/></clipPath><clipPath id="i" clipPathUnits="userSpaceOnUse"><path d="m441.819 548.775-8.798-28.211a5.974 5.974 0 0 1-.282-1.765v-.02c.003-1.22.447-2.324 1.252-3.11.798-.778 1.921-1.218 3.216-1.235h.023v-.001h.051l24.978.001 2.505 8.021h-18.487v.117l-.011-.117a1.096 1.096 0 0 0-.183.035c-.017.005-.027.011-.035.014l-.043.019-.015.049c-.004 0-.005.011-.008.017a.853.853 0 0 0-.022.141.729.729 0 0 0 .031.168l8.073 25.877z"/></clipPath><clipPath id="k" clipPathUnits="userSpaceOnUse"><path d="M448.798 526.348c0-10.003 8.111-18.116 18.118-18.116 10.007 0 18.118 8.113 18.118 18.116 0 10.002-8.111 18.114-18.118 18.114-10.008 0-18.118-8.112-18.118-18.114"/></clipPath><clipPath id="m" clipPathUnits="userSpaceOnUse"><path d="M449.023 526.342c0-9.873 8.011-17.882 17.893-17.882 9.884 0 17.891 8.009 17.891 17.882 0 9.883-8.007 17.892-17.891 17.893-9.882-.001-17.893-8.01-17.893-17.893"/></clipPath><clipPath id="o" clipPathUnits="userSpaceOnUse"><path d="m441.991 548.548-8.755-28.052a5.668 5.668 0 0 1-.267-1.697v-.006c-.003-1.169.418-2.218 1.183-2.964.764-.743 1.852-1.172 3.127-1.172h24.813l2.363 7.574h-18.196c-.403.034-.492.152-.521.482 0 .073.007.158.034.253l7.984 25.582z"/></clipPath><clipPath id="q" clipPathUnits="userSpaceOnUse"><path d="M449.493 526.342c0-9.623 7.805-17.425 17.431-17.425 9.626 0 17.435 7.802 17.435 17.425 0 9.625-7.809 17.433-17.435 17.433-9.626 0-17.431-7.808-17.431-17.433"/></clipPath><clipPath id="s" clipPathUnits="userSpaceOnUse"><path d="M450.5 526.342c0-9.068 7.351-16.422 16.424-16.422 9.074 0 16.433 7.354 16.433 16.422 0 9.072-7.359 16.424-16.433 16.424-9.073 0-16.424-7.352-16.424-16.424"/></clipPath><clipPath id="u" clipPathUnits="userSpaceOnUse"><path d="M450.418 526.423c0-9.115 7.389-16.503 16.506-16.503 9.12 0 16.511 7.388 16.511 16.503s-7.391 16.505-16.511 16.505c-9.117 0-16.506-7.39-16.506-16.505"/></clipPath><clipPath id="w" clipPathUnits="userSpaceOnUse"><path d="M455.703 514.323a16.446 16.446 0 0 1 11.22-4.404c4.337 0 8.281 1.672 11.225 4.404-2.944 2.254-6.888 3.635-11.224 3.635-4.332 0-8.277-1.383-11.221-3.635"/></clipPath><clipPath id="y" clipPathUnits="userSpaceOnUse"><path d="M0 841.89h595.28V0H0Z"/></clipPath><clipPath id="a" clipPathUnits="userSpaceOnUse"><path d="M453.22 542.282h27.413v-21.417H453.22Z"/></clipPath><clipPath id="b" clipPathUnits="userSpaceOnUse"><path d="M453.22 542.282h27.413v-21.417H453.22Z"/></clipPath><clipPath id="c" clipPathUnits="userSpaceOnUse"><path d="M466.925 520.865c7.574 0 13.708 4.794 13.708 10.71 0 5.913-6.134 10.707-13.708 10.707-7.569 0-13.705-4.794-13.705-10.707 0-5.916 6.136-10.71 13.705-10.71"/></clipPath><clipPath id="A" clipPathUnits="userSpaceOnUse"><path d="M453.22 542.282h27.413v-21.417H453.22Z"/></clipPath><clipPath id="B" clipPathUnits="userSpaceOnUse"><path d="M432.611 519.425h30.345v-6.949h-30.345z"/></clipPath><clipPath id="C" clipPathUnits="userSpaceOnUse"><path d="M433.65 513.909c.618-.601 1.479-.983 2.529-1.045.094-.004.194-.007.295-.007 5.327-.031 10.714-.842 15.974 0 1.494.598 2.797.86 4.299 1.195 1.535.348 3.266.606 4.796.841.044.138.086.278.129.415.115.366.228.73.344 1.096.313 1.006.628 2.013.94 3.021h-29.679c-.139-.438-.276-.879-.417-1.316-.3-.977-.323-1.892-.099-2.677a3.39 3.39 0 0 1 .889-1.523"/></clipPath><clipPath id="D" clipPathUnits="userSpaceOnUse"><path d="M448.768 521.22s6.808-2.038 7.353-5.439h5.297l1.7 5.439z"/></clipPath><clipPath id="F" clipPathUnits="userSpaceOnUse"><path d="M0 841.89h595.28V0H0Z"/></clipPath><clipPath id="G" clipPathUnits="userSpaceOnUse"><path d="m442.883 547.644-4.606-14.758c4.323 8.374 10.983 14.758 10.983 14.758z"/></clipPath><linearGradient id="f" x1="0" x2="1" y1="0" y2="0" gradientTransform="matrix(0 29.36755 29.36755 0 458.396 497.093)" gradientUnits="userSpaceOnUse" spreadMethod="pad"><stop offset="0" style="stop-opacity:1;stop-color:#f29c9f"/><stop offset="0.4882884" style="stop-opacity:1;stop-color:#e60013"/><stop offset="1" style="stop-opacity:1;stop-color:#e60013"/></linearGradient><linearGradient id="h" x1="0" x2="1" y1="0" y2="0" gradientTransform="matrix(0 -15.94882 -15.94882 0 458.397 558.866)" gradientUnits="userSpaceOnUse" spreadMethod="pad"><stop offset="0" style="stop-opacity:1;stop-color:#fff"/><stop offset="0.0594025" style="stop-opacity:1;stop-color:#fef7fa"/><stop offset="0.460403" style="stop-opacity:1;stop-color:#eb624b"/><stop offset="1" style="stop-opacity:1;stop-color:#e60021"/></linearGradient><linearGradient id="j" x1="0" x2="1" y1="0" y2="0" gradientTransform="matrix(-6.96231 5.2887 5.2887 6.96231 441.879 533.835)" gradientUnits="userSpaceOnUse" spreadMethod="pad"><stop offset="0" style="stop-opacity:1;stop-color:#fff"/><stop offset="0.02828658" style="stop-opacity:1;stop-color:#fff"/><stop offset="1" style="stop-opacity:1;stop-color:#e60013"/></linearGradient><linearGradient id="l" x1="0" x2="1" y1="0" y2="0" gradientTransform="scale(-7.68125 7.68125) rotate(60 -89.215 -19.283)" gradientUnits="userSpaceOnUse" spreadMethod="pad"><stop offset="0" style="stop-opacity:1;stop-color:#fff"/><stop offset="0.02828658" style="stop-opacity:1;stop-color:#fff"/><stop offset="1" style="stop-opacity:1;stop-color:#e60013"/></linearGradient><linearGradient id="n" x1="0" x2="1" y1="0" y2="0" gradientTransform="matrix(35.7832 0 0 -35.7832 449.023 526.348)" gradientUnits="userSpaceOnUse" spreadMethod="pad"><stop offset="0" style="stop-opacity:1;stop-color:#b60007"/><stop offset="1" style="stop-opacity:1;stop-color:#e60013"/></linearGradient><linearGradient id="p" x1="0" x2="1" y1="0" y2="0" gradientTransform="scale(4.71328 -4.71328) rotate(44.029 185.638 62.723)" gradientUnits="userSpaceOnUse" spreadMethod="pad"><stop offset="0" style="stop-opacity:1;stop-color:#c7000c"/><stop offset="1" style="stop-opacity:1;stop-color:#e60013"/></linearGradient><linearGradient id="r" x1="0" x2="1" y1="0" y2="0" gradientTransform="matrix(0 34.85791 34.85791 0 466.926 508.916)" gradientUnits="userSpaceOnUse" spreadMethod="pad"><stop offset="0" style="stop-opacity:1;stop-color:#fce2be"/><stop offset="0.321777" style="stop-opacity:1;stop-color:#f5a100"/><stop offset="0.673264" style="stop-opacity:1;stop-color:#f6ab00"/><stop offset="1" style="stop-opacity:1;stop-color:#fdda8d"/></linearGradient><linearGradient id="d" x1="0" x2="1" y1="0" y2="0" gradientTransform="matrix(0 -16.25736 -16.25736 0 466.926 540.736)" gradientUnits="userSpaceOnUse" spreadMethod="pad"><stop offset="0" style="stop-opacity:1;stop-color:#fff"/><stop offset="0.18668002" style="stop-opacity:1;stop-color:#9f9fa0"/><stop offset="0.237625" style="stop-opacity:1;stop-color:#9f9fa0"/><stop offset="0.75488244" style="stop-opacity:1;stop-color:#231916"/><stop offset="0.896042" style="stop-opacity:1;stop-color:#231916"/><stop offset="1" style="stop-opacity:1;stop-color:#231916"/></linearGradient><linearGradient id="E" x1="0" x2="1" y1="0" y2="0" gradientTransform="scale(-8.23446 8.23446) rotate(-30.334 89.027 135.328)" gradientUnits="userSpaceOnUse" spreadMethod="pad"><stop offset="0" style="stop-opacity:1;stop-color:#fff"/><stop offset="0.0445557" style="stop-opacity:1;stop-color:#fff"/><stop offset="0.73288183" style="stop-opacity:1;stop-color:#fff"/><stop offset="1" style="stop-opacity:1;stop-color:#f7f7f8"/></linearGradient><linearGradient id="H" x1="0" x2="1" y1="0" y2="0" gradientTransform="scale(4.08497 -4.08497) rotate(37.545 249.416 92.096)" gradientUnits="userSpaceOnUse" spreadMethod="pad"><stop offset="0" style="stop-opacity:1;stop-color:#fff"/><stop offset="0.0445557" style="stop-opacity:1;stop-color:#fff"/><stop offset="0.56727282" style="stop-opacity:1;stop-color:#fff"/><stop offset="1" style="stop-opacity:1;stop-color:#f7f7f8"/></linearGradient><radialGradient id="t" cx="0" cy="0" r="1" fx="0" fy="0" gradientTransform="matrix(39.38495 0 0 -39.37468 466.929 509.92)" gradientUnits="userSpaceOnUse" spreadMethod="pad"><stop offset="0" style="stop-opacity:1;stop-color:#fff2b2"/><stop offset="0.0643616" style="stop-opacity:1;stop-color:#fede78"/><stop offset="0.321777" style="stop-opacity:1;stop-color:#f5a100"/><stop offset="0.589111" style="stop-opacity:1;stop-color:#f6ab00"/><stop offset="0.920792" style="stop-opacity:1;stop-color:#fee9bc"/><stop offset="1" style="stop-opacity:1;stop-color:#fee9bc"/></radialGradient><radialGradient id="v" cx="0" cy="0" r="1" fx="0" fy="0" gradientTransform="matrix(-73.72058 0 0 73.70137 466.76 542.939)" gradientUnits="userSpaceOnUse" spreadMethod="pad"><stop offset="0" style="stop-opacity:1;stop-color:#fde1aa"/><stop offset="0.0643616" style="stop-opacity:1;stop-color:#fde1aa"/><stop offset="0.183167" style="stop-opacity:1;stop-color:#fcd576"/><stop offset="0.282181" style="stop-opacity:1;stop-color:#f5a100"/><stop offset="0.470291" style="stop-opacity:1;stop-color:#f6ab00"/><stop offset="0.920792" style="stop-opacity:1;stop-color:#fee9bc"/><stop offset="1" style="stop-opacity:1;stop-color:#fee9bc"/></radialGradient><radialGradient id="x" cx="0" cy="0" r="1" fx="0" fy="0" gradientTransform="matrix(151.92346 0 0 -151.88387 467.366 499.579)" gradientUnits="userSpaceOnUse" spreadMethod="pad"><stop offset="0" style="stop-opacity:1;stop-color:#fffcd1"/><stop offset="0.0693054" style="stop-opacity:1;stop-color:#fffab5"/><stop offset="0.0891113" style="stop-opacity:1;stop-color:#fede78"/><stop offset="0.118805" style="stop-opacity:1;stop-color:#f6a800"/><stop offset="1" style="stop-opacity:1;stop-color:#f6a800"/></radialGradient><mask id="z" width="1" height="1" x="0" y="0" maskUnits="userSpaceOnUse"><g clip-path="url(#a)"><path d="M453.22 542.282h27.413v-21.417H453.22Z" style="fill:#000;fill-opacity:1;fill-rule:nonzero;stroke:none"/><g clip-path="url(#b)"><g clip-path="url(#c)"><path d="M466.925 520.865c7.574 0 13.708 4.794 13.708 10.71 0 5.913-6.134 10.707-13.708 10.707-7.569 0-13.705-4.794-13.705-10.707 0-5.916 6.136-10.71 13.705-10.71" style="fill:url(#d);stroke:none"/></g></g></g></mask></defs><g clip-path="url(#e)" transform="matrix(1.12188 0 0 -1.12188 -478.513 629.163)"><path d="M436.792 559.352c-4.271-.781-8.02-4.534-8.806-8.804-1.946-14.484-1.946-28.708 0-43.192.786-4.272 4.535-8.019 8.806-8.805 14.491-1.944 28.718-1.944 43.211 0 4.271.786 8.019 4.533 8.803 8.805 1.946 14.484 1.946 28.708 0 43.192-.784 4.27-4.532 8.023-8.803 8.804a161.722 161.722 0 0 1-21.602 1.458c-7.18 0-14.363-.486-21.609-1.458" style="fill:url(#f);stroke:none"/></g><g clip-path="url(#g)" transform="matrix(1.12188 0 0 -1.12188 -478.513 629.163)"><path d="M438.114 557.376c-4.017-.737-7.533-4.258-8.272-8.269-1.828-13.602-1.825-26.956 0-40.558.739-4.01 4.255-7.527 8.272-8.265 13.607-1.824 26.962-1.824 40.569 0 4.015.738 7.535 4.255 8.266 8.265 1.832 13.602 1.832 26.956 0 40.558-.731 4.011-4.251 7.532-8.266 8.269-6.8.913-13.537 1.369-20.275 1.369-6.744 0-13.487-.457-20.294-1.369" style="fill:url(#h);stroke:none"/></g><g clip-path="url(#i)" transform="matrix(1.12188 0 0 -1.12188 -478.513 629.163)"><path d="m441.819 548.775-8.798-28.211a5.974 5.974 0 0 1-.282-1.765v-.02c.003-1.22.447-2.324 1.252-3.11.798-.778 1.921-1.218 3.216-1.235h.023v-.001h.051l24.978.001 2.505 8.021h-18.487v.117l-.011-.117a1.096 1.096 0 0 0-.183.035c-.017.005-.027.011-.035.014l-.043.019-.015.049c-.004 0-.005.011-.008.017a.853.853 0 0 0-.022.141.729.729 0 0 0 .031.168l8.073 25.877z" style="fill:url(#j);stroke:none"/></g><g clip-path="url(#k)" transform="matrix(1.12188 0 0 -1.12188 -478.513 629.163)"><path d="M448.798 526.348c0-10.003 8.111-18.116 18.118-18.116 10.007 0 18.118 8.113 18.118 18.116 0 10.002-8.111 18.114-18.118 18.114-10.008 0-18.118-8.112-18.118-18.114" style="fill:url(#l);stroke:none"/></g><g clip-path="url(#m)" transform="matrix(1.12188 0 0 -1.12188 -478.513 629.163)"><path d="M449.023 526.342c0-9.873 8.011-17.882 17.893-17.882 9.884 0 17.891 8.009 17.891 17.882 0 9.883-8.007 17.892-17.891 17.893-9.882-.001-17.893-8.01-17.893-17.893" style="fill:url(#n);stroke:none"/></g><g clip-path="url(#o)" transform="matrix(1.12188 0 0 -1.12188 -478.513 629.163)"><path d="m441.991 548.548-8.755-28.052a5.668 5.668 0 0 1-.267-1.697v-.006c-.003-1.169.418-2.218 1.183-2.964.764-.743 1.852-1.172 3.127-1.172h24.813l2.363 7.574h-18.196c-.403.034-.492.152-.521.482 0 .073.007.158.034.253l7.984 25.582z" style="fill:url(#p);stroke:none"/></g><g clip-path="url(#q)" transform="matrix(1.12188 0 0 -1.12188 -478.513 629.163)"><path d="M449.493 526.342c0-9.623 7.805-17.425 17.431-17.425 9.626 0 17.435 7.802 17.435 17.425 0 9.625-7.809 17.433-17.435 17.433-9.626 0-17.431-7.808-17.431-17.433" style="fill:url(#r);stroke:none"/></g><g clip-path="url(#s)" transform="matrix(1.12188 0 0 -1.12188 -478.513 629.163)"><path d="M450.5 526.342c0-9.068 7.351-16.422 16.424-16.422 9.074 0 16.433 7.354 16.433 16.422 0 9.072-7.359 16.424-16.433 16.424-9.073 0-16.424-7.352-16.424-16.424" style="fill:url(#t);stroke:none"/></g><g clip-path="url(#u)" transform="matrix(1.12188 0 0 -1.12188 -478.513 629.163)"><path d="M450.418 526.423c0-9.115 7.389-16.503 16.506-16.503 9.12 0 16.511 7.388 16.511 16.503s-7.391 16.505-16.511 16.505c-9.117 0-16.506-7.39-16.506-16.505" style="fill:url(#v);stroke:none"/></g><g clip-path="url(#w)" transform="matrix(1.12188 0 0 -1.12188 -478.513 629.163)"><path d="M455.703 514.323a16.446 16.446 0 0 1 11.22-4.404c4.337 0 8.281 1.672 11.225 4.404-2.944 2.254-6.888 3.635-11.224 3.635-4.332 0-8.277-1.383-11.221-3.635" style="fill:url(#x);stroke:none"/></g><g clip-path="url(#y)" transform="matrix(1.12188 0 0 -1.12188 -478.513 629.163)"><g mask="url(#z)"><g clip-path="url(#A)"><path d="M0 0c7.574 0 13.708 4.793 13.708 10.709 0 5.914-6.134 10.708-13.708 10.708-7.568 0-13.705-4.794-13.705-10.708C-13.705 4.793-7.568 0 0 0" style="fill:#fff;fill-opacity:1;fill-rule:nonzero;stroke:none" transform="translate(466.925 520.865)"/></g></g><g clip-path="url(#B)" opacity="0.309998"><g clip-path="url(#C)"><path d="M433.65-513.909c.309.3.678.546 1.102.725a2.655 2.655 0 0 1-.147-.207 3.353 3.353 0 0 1-1.123-.694c.054.06.11.12.168.176z" style="fill:#e60013;fill-opacity:1;fill-rule:nonzero;stroke:none" transform="scale(1 -1)"/><path d="M433.482-514.085a4.439 4.439 0 0 1-.153-.188c.157.146.333.274.524.385.048.067.096.134.147.199a3.142 3.142 0 0 1-.518-.396z" style="fill:#e60013;fill-opacity:1;fill-rule:nonzero;stroke:none" transform="scale(1 -1)"/><path d="M434-513.69a5.334 5.334 0 0 1-.147-.198c.192.11.399.202.62.278.043.075.086.147.132.219a3.557 3.557 0 0 1-.605-.298z" style="fill:#e10012;fill-opacity:1;fill-rule:nonzero;stroke:none" transform="scale(1 -1)"/><path d="M434.752-513.184a3.593 3.593 0 0 1-.28-.426c.441.152.934.238 1.457.266.074.168.155.326.25.48a4.311 4.311 0 0 1-1.427-.32z" style="fill:#e60013;fill-opacity:1;fill-rule:nonzero;stroke:none" transform="scale(1 -1)"/><path d="M436.179-512.863c.094.003.194.006.295.006a3.98 3.98 0 0 1-.25-.472l-.295-.016c.074.17.155.326.25.481z" style="fill:#e60013;fill-opacity:1;fill-rule:nonzero;stroke:none" transform="scale(1 -1)"/><path d="M436.474-512.857c2.092.013 4.194.145 6.293.25a2.803 2.803 0 0 1-.046-.175c-2.109-.067-4.22-.162-6.317-.19.023.039.045.077.07.115z" style="fill:#e60013;fill-opacity:1;fill-rule:nonzero;stroke:none" transform="scale(1 -1)"/><path d="M436.404-512.971c2.098.027 4.208.122 6.317.189a3.707 3.707 0 0 1-.03-.157c-2.122-.03-4.242-.089-6.35-.149l.063.117z" style="fill:#e00011;fill-opacity:1;fill-rule:nonzero;stroke:none" transform="scale(1 -1)"/><path d="M436.342-513.088a3.803 3.803 0 0 1-.117-.24c1.06.053 2.125.076 3.193.08.035.1.062.174.094.246a756.618 756.618 0 0 1-3.17-.086z" style="fill:#d70010;fill-opacity:1;fill-rule:nonzero;stroke:none" transform="scale(1 -1)"/><path d="M439.512-513.002c1.058.026 2.118.048 3.178.063-.009-.052-.017-.104-.028-.16-1.065.005-2.13 0-3.195-.016.014.04.029.077.045.113z" style="fill:#d1000f;fill-opacity:1;fill-rule:nonzero;stroke:none" transform="scale(1 -1)"/><path d="M439.467-513.115c1.064.017 2.13.02 3.195.017a8.651 8.651 0 0 0-.035-.182c-1.07.022-2.14.037-3.21.033l.05.132z" style="fill:#c4000b;fill-opacity:1;fill-rule:nonzero;stroke:none" transform="scale(1 -1)"/><path d="M442.767-512.606c2.1.105 4.198.183 6.282.087a1.725 1.725 0 0 1-.02-.24c-2.092.084-4.198.044-6.308-.023.012.054.027.111.047.176z" style="fill:#e60013;fill-opacity:1;fill-rule:nonzero;stroke:none" transform="scale(1 -1)"/><path d="M442.72-512.782c2.111.067 4.217.107 6.308.023a2.633 2.633 0 0 1 .007-.202 161.59 161.59 0 0 1-6.344.022c.009.051.018.102.03.157z" style="fill:#db0011;fill-opacity:1;fill-rule:nonzero;stroke:none" transform="scale(1 -1)"/><path d="M442.69-512.94c2.12.03 4.24.033 6.345-.02.004-.066.008-.132.01-.204-2.12.023-4.25.059-6.383.066l.029.159z" style="fill:#cc000e;fill-opacity:1;fill-rule:nonzero;stroke:none" transform="scale(1 -1)"/><path d="M442.662-513.098c2.133-.007 4.264-.043 6.382-.066a1.973 1.973 0 0 0-.01-.241c-2.124.009-4.265.082-6.407.126.014.066.025.126.035.18z" style="fill:#bd0009;fill-opacity:1;fill-rule:nonzero;stroke:none" transform="scale(1 -1)"/><path d="M449.049-512.52a30.343 30.343 0 0 0 3.4-.337.99.99 0 0 1 .035-.378 31.758 31.758 0 0 1-3.449.274c-.008.132-.014.262.014.442z" style="fill:#e60013;fill-opacity:1;fill-rule:nonzero;stroke:none" transform="scale(1 -1)"/><path d="M449.035-512.96c1.157-.03 2.307-.12 3.45-.275.026-.106.054-.211.045-.38a33.479 33.479 0 0 1-3.497.21c.02.182.01.313.002.444z" style="fill:#c7000c;fill-opacity:1;fill-rule:nonzero;stroke:none" transform="scale(1 -1)"/><path d="M452.448-512.857c1.494-.597 2.797-.86 4.299-1.194.005-.098.06-.116.118-.134-1.492.311-2.885.569-4.38.95a.982.982 0 0 0-.037.378z" style="fill:#e60013;fill-opacity:1;fill-rule:nonzero;stroke:none" transform="scale(1 -1)"/><path d="M452.484-513.235c1.496-.381 2.889-.639 4.381-.95.058-.018.117-.035.128-.133a54.827 54.827 0 0 1-4.463.703c.01.169-.02.274-.046.38z" style="fill:#c5000c;fill-opacity:1;fill-rule:nonzero;stroke:none" transform="scale(1 -1)"/><path d="M456.747-514.051a44.213 44.213 0 0 1 2.4-.463c.013-.084.05-.114.087-.144-.798.152-1.596.31-2.369.473-.057.018-.113.036-.118.134z" style="fill:#e60013;fill-opacity:1;fill-rule:nonzero;stroke:none" transform="scale(1 -1)"/><path d="M456.865-514.185c.773-.163 1.57-.32 2.37-.473.037-.03.076-.06.091-.142-.78.167-1.557.33-2.333.482-.01.098-.07.115-.128.133z" style="fill:#c5000c;fill-opacity:1;fill-rule:nonzero;stroke:none" transform="scale(1 -1)"/><path d="M459.146-514.514c.817-.138 1.631-.261 2.397-.378l.064-.208c-.774.142-1.574.29-2.373.442-.037.03-.074.06-.088.144z" style="fill:#e60013;fill-opacity:1;fill-rule:nonzero;stroke:none" transform="scale(1 -1)"/><path d="M459.234-514.658c.8-.152 1.599-.3 2.373-.442l.065-.207c-.784.169-1.567.34-2.346.507a.206.206 0 0 1-.092.142z" style="fill:#c7000c;fill-opacity:1;fill-rule:nonzero;stroke:none" transform="scale(1 -1)"/><path d="M433.329-514.273c.157.146.333.274.524.385a2.087 2.087 0 0 1-.09-.144 2.617 2.617 0 0 1-.529-.371l.095.13z" style="fill:#e60013;fill-opacity:1;fill-rule:nonzero;stroke:none" transform="scale(1 -1)"/><path d="M433.234-514.403c.16.145.336.268.529.371-.029-.05-.056-.1-.081-.151a2.452 2.452 0 0 1-.536-.354l.088.134z" style="fill:#e60013;fill-opacity:1;fill-rule:nonzero;stroke:none" transform="scale(1 -1)"/><path d="M433.146-514.537c.163.14.34.258.536.354a3.33 3.33 0 0 1-.14-.32 2.403 2.403 0 0 1-.55-.316c.047.097.099.19.154.282z" style="fill:#e60013;fill-opacity:1;fill-rule:nonzero;stroke:none" transform="scale(1 -1)"/><path d="M433.853-513.888c.192.11.399.202.62.278a2.767 2.767 0 0 1-.088-.169 3.38 3.38 0 0 1-.622-.253c.028.049.058.097.09.144z" style="fill:#dc0011;fill-opacity:1;fill-rule:nonzero;stroke:none" transform="scale(1 -1)"/><path d="M433.763-514.032c.192.104.401.187.622.253a3.6 3.6 0 0 1-.078-.173 3.361 3.361 0 0 1-.625-.231c.025.051.052.102.08.151z" style="fill:#d80010;fill-opacity:1;fill-rule:nonzero;stroke:none" transform="scale(1 -1)"/><path d="M433.682-514.183c.193.096.403.172.625.231a3.894 3.894 0 0 1-.126-.358 3.66 3.66 0 0 1-.638-.193c.04.11.087.216.139.32z" style="fill:#d2000f;fill-opacity:1;fill-rule:nonzero;stroke:none" transform="scale(1 -1)"/><path d="M432.992-514.82a3.761 3.761 0 0 1-.129-.297c.088.059.18.11.276.157.035.108.074.213.117.317a2.306 2.306 0 0 1-.264-.176z" style="fill:#e60013;fill-opacity:1;fill-rule:nonzero;stroke:none" transform="scale(1 -1)"/><path d="M433.256-514.643a4.375 4.375 0 0 1-.117-.317c.094.047.193.087.295.123.033.112.069.224.109.334a2.607 2.607 0 0 1-.287-.14z" style="fill:#d3000f;fill-opacity:1;fill-rule:nonzero;stroke:none" transform="scale(1 -1)"/><path d="M432.863-515.117a3.98 3.98 0 0 1-.102-.314c.089.056.182.105.28.148.03.108.061.216.098.323a2.254 2.254 0 0 1-.276-.157z" style="fill:#e60013;fill-opacity:1;fill-rule:nonzero;stroke:none" transform="scale(1 -1)"/><path d="M433.139-514.96c.094.047.193.087.295.123a5.61 5.61 0 0 1-.046-.169 2.7 2.7 0 0 1-.301-.115c.016.054.034.108.052.161z" style="fill:#ca000d;fill-opacity:1;fill-rule:nonzero;stroke:none" transform="scale(1 -1)"/><path d="M433.087-515.12c.097.043.196.081.3.114l-.041-.168a2.643 2.643 0 0 1-.305-.11l.046.163z" style="fill:#c8000d;fill-opacity:1;fill-rule:nonzero;stroke:none" transform="scale(1 -1)"/><path d="M433.543-514.503a5.03 5.03 0 0 1-.109-.334c.103.035.208.066.317.092.03.118.063.236.101.351a3.127 3.127 0 0 1-.31-.11z" style="fill:#c1000a;fill-opacity:1;fill-rule:nonzero;stroke:none" transform="scale(1 -1)"/><path d="M433.852-514.394a5.337 5.337 0 0 1-.101-.35c.108.026.22.048.335.067.027.123.058.245.095.367a4.245 4.245 0 0 1-.329-.084z" style="fill:#af0004;fill-opacity:1;fill-rule:nonzero;stroke:none" transform="scale(1 -1)"/><path d="M433.434-514.837c.103.035.208.066.317.092-.015-.058-.028-.117-.042-.176a3.828 3.828 0 0 1-.321-.085c.014.057.03.113.047.169z" style="fill:#b00004;fill-opacity:1;fill-rule:nonzero;stroke:none" transform="scale(1 -1)"/><path d="M433.388-515.006c.104.033.21.061.32.085a6.18 6.18 0 0 1-.037-.175 3.452 3.452 0 0 1-.325-.077l.042.168z" style="fill:#aa0002;fill-opacity:1;fill-rule:nonzero;stroke:none" transform="scale(1 -1)"/><path d="M433.75-514.745c.11.027.222.049.336.068l-.04-.185a4.784 4.784 0 0 1-.337-.059c.014.059.027.118.042.176z" style="fill:#960000;fill-opacity:1;fill-rule:nonzero;stroke:none" transform="scale(1 -1)"/><path d="M433.709-514.92c.11.023.223.042.338.058a12.712 12.712 0 0 1-.033-.183 4.666 4.666 0 0 1-.343-.051c.012.058.024.116.038.175z" style="fill:#8e0000;fill-opacity:1;fill-rule:nonzero;stroke:none" transform="scale(1 -1)"/><path d="M434.473-513.61c.22.076.454.136.697.18a3.15 3.15 0 0 1-.086-.192 5.017 5.017 0 0 1-.7-.157c.028.058.057.114.089.169z" style="fill:#d3000f;fill-opacity:1;fill-rule:nonzero;stroke:none" transform="scale(1 -1)"/><path d="M434.385-513.779c.22.068.455.12.699.157a3.832 3.832 0 0 1-.076-.194 5.253 5.253 0 0 1-.701-.136c.024.059.05.116.078.173z" style="fill:#ca000d;fill-opacity:1;fill-rule:nonzero;stroke:none" transform="scale(1 -1)"/><path d="M434.307-513.952a3.894 3.894 0 0 1-.126-.358c.112.023.227.043.344.06.036.127.077.253.123.377a4.717 4.717 0 0 1-.341-.079z" style="fill:#bd0009;fill-opacity:1;fill-rule:nonzero;stroke:none" transform="scale(1 -1)"/><path d="M434.648-513.873a4.637 4.637 0 0 1-.123-.377c.118.017.239.031.362.043.035.131.075.262.12.39a5.9 5.9 0 0 1-.359-.056z" style="fill:#b40006;fill-opacity:1;fill-rule:nonzero;stroke:none" transform="scale(1 -1)"/><path d="M435.17-513.43c.244.044.498.072.759.086a4.277 4.277 0 0 1-.085-.204 7.803 7.803 0 0 1-.76-.074c.026.064.055.128.086.192z" style="fill:#cc000e;fill-opacity:1;fill-rule:nonzero;stroke:none" transform="scale(1 -1)"/><path d="M435.084-513.622c.244.037.499.06.76.074a4.094 4.094 0 0 1-.076-.203 9.36 9.36 0 0 1-.76-.065c.023.065.049.13.076.194z" style="fill:#be0009;fill-opacity:1;fill-rule:nonzero;stroke:none" transform="scale(1 -1)"/><path d="M435.008-513.816a5.234 5.234 0 0 1-.121-.39l.375.029c.033.134.074.267.12.4a8.195 8.195 0 0 1-.374-.04z" style="fill:#ad0003;fill-opacity:1;fill-rule:nonzero;stroke:none" transform="scale(1 -1)"/><path d="M435.383-513.776a4.375 4.375 0 0 1-.121-.401c.127.008.255.014.385.02.035.136.075.271.121.406a10 10 0 0 1-.385-.025z" style="fill:#a70001;fill-opacity:1;fill-rule:nonzero;stroke:none" transform="scale(1 -1)"/><path d="M434.18-514.31c.113.023.228.043.345.06a4.44 4.44 0 0 1-.048-.19 6.385 6.385 0 0 1-.347-.053c.015.061.032.122.05.183z" style="fill:#9e0000;fill-opacity:1;fill-rule:nonzero;stroke:none" transform="scale(1 -1)"/><path d="M434.13-514.493c.113.02.23.038.346.053a3.25 3.25 0 0 1-.04-.191 6.264 6.264 0 0 1-.35-.047c.014.062.028.124.044.185z" style="fill:#8e0000;fill-opacity:1;fill-rule:nonzero;stroke:none" transform="scale(1 -1)"/><path d="M434.525-514.25c.118.017.239.031.362.043a4.818 4.818 0 0 1-.048-.196 9.069 9.069 0 0 1-.363-.037c.015.063.032.127.05.19z" style="fill:#8f0000;fill-opacity:1;fill-rule:nonzero;stroke:none" transform="scale(1 -1)"/><path d="M434.476-514.44c.119.014.24.027.363.037a4.564 4.564 0 0 1-.04-.197 9.012 9.012 0 0 1-.364-.031c.012.064.026.127.041.19z" style="fill:#7d0000;fill-opacity:1;fill-rule:nonzero;stroke:none" transform="scale(1 -1)"/><path d="M434.086-514.677c.113.018.23.033.35.046a6.743 6.743 0 0 1-.036-.191 6.581 6.581 0 0 1-.353-.04c.012.062.025.123.039.185z" style="fill:maroon;fill-opacity:1;fill-rule:nonzero;stroke:none" transform="scale(1 -1)"/><path d="M434.047-514.862c.115.017.233.03.353.04a6.84 6.84 0 0 1-.029-.19 7.12 7.12 0 0 1-.357-.033l.033.183z" style="fill:#760000;fill-opacity:1;fill-rule:nonzero;stroke:none" transform="scale(1 -1)"/><path d="M434.435-514.631c.12.013.24.023.364.031a6.983 6.983 0 0 1-.032-.197 8.88 8.88 0 0 1-.367-.025c.011.063.023.127.036.19z" style="fill:#6e0000;fill-opacity:1;fill-rule:nonzero;stroke:none" transform="scale(1 -1)"/><path d="M434.4-514.822c.12.01.242.019.367.025a4.11 4.11 0 0 1-.026-.196c-.126-.005-.249-.01-.37-.019.009.063.019.127.03.19z" style="fill:#630000;fill-opacity:1;fill-rule:nonzero;stroke:none" transform="scale(1 -1)"/><path d="M434.887-514.207c.123.012.248.022.375.03a3.729 3.729 0 0 1-.047-.201 10.404 10.404 0 0 1-.376-.025c.014.065.03.13.048.196z" style="fill:#840000;fill-opacity:1;fill-rule:nonzero;stroke:none" transform="scale(1 -1)"/><path d="M434.839-514.403c.123.01.249.019.376.025a4.736 4.736 0 0 1-.04-.2 19.318 19.318 0 0 1-.376-.022c.011.066.025.132.04.197z" style="fill:#710000;fill-opacity:1;fill-rule:nonzero;stroke:none" transform="scale(1 -1)"/><path d="M435.262-514.177c.127.008.255.014.385.02a5.326 5.326 0 0 1-.046-.203c-.13-.006-.26-.01-.386-.018.013.067.03.134.047.2z" style="fill:#7c0000;fill-opacity:1;fill-rule:nonzero;stroke:none" transform="scale(1 -1)"/><path d="M435.215-514.378c.127.007.256.012.386.018a5.377 5.377 0 0 1-.039-.203l-.386-.016c.011.067.024.134.039.2z" style="fill:#690000;fill-opacity:1;fill-rule:nonzero;stroke:none" transform="scale(1 -1)"/><path d="M434.799-514.6c.124.008.25.015.377.021a4.694 4.694 0 0 1-.03-.201c-.129-.005-.255-.01-.38-.017.01.066.021.131.033.197z" style="fill:#610000;fill-opacity:1;fill-rule:nonzero;stroke:none" transform="scale(1 -1)"/><path d="M434.767-514.797c.125.007.25.012.378.017a6.228 6.228 0 0 1-.023-.2 21.404 21.404 0 0 1-.38-.013c.006.066.015.131.025.196z" style="fill:#500;fill-opacity:1;fill-rule:nonzero;stroke:none" transform="scale(1 -1)"/><path d="m435.176-514.579.386.016a5.037 5.037 0 0 1-.03-.203l-.387-.014.03.201z" style="fill:#570000;fill-opacity:1;fill-rule:nonzero;stroke:none" transform="scale(1 -1)"/><path d="m435.145-514.78.387.014a4.603 4.603 0 0 1-.022-.203l-.388-.012.023.201z" style="fill:#4c0000;fill-opacity:1;fill-rule:nonzero;stroke:none" transform="scale(1 -1)"/><path d="M435.929-513.344c1.085.06 2.174.088 3.266.096a4.287 4.287 0 0 1-.136-.401 74.17 74.17 0 0 1-3.29-.102c.046.136.1.271.16.407z" style="fill:#c7000c;fill-opacity:1;fill-rule:nonzero;stroke:none" transform="scale(1 -1)"/><path d="M435.768-513.75a74.2 74.2 0 0 0 3.29.1 4.206 4.206 0 0 1-.095-.4 94.577 94.577 0 0 1-3.316-.107c.035.136.075.271.121.406z" style="fill:#a40000;fill-opacity:1;fill-rule:nonzero;stroke:none" transform="scale(1 -1)"/><path d="M439.195-513.248c1.092.007 2.188-.006 3.283-.029a6.723 6.723 0 0 1-.104-.384c-1.107.017-2.214.024-3.315.012.038.134.084.267.136.4z" style="fill:#ba0008;fill-opacity:1;fill-rule:nonzero;stroke:none" transform="scale(1 -1)"/><path d="M439.059-513.65c1.101.013 2.208.006 3.315-.01a5.261 5.261 0 0 1-.076-.38c-1.114.01-2.226.008-3.335-.01.025.134.056.267.095.4z" style="fill:#970000;fill-opacity:1;fill-rule:nonzero;stroke:none" transform="scale(1 -1)"/><path d="M435.647-514.157c2.2.112 4.424.136 6.65.116a6.78 6.78 0 0 1-.028-.19c-2.23.014-4.458-.02-6.667-.13.013.068.029.136.045.204z" style="fill:#790000;fill-opacity:1;fill-rule:nonzero;stroke:none" transform="scale(1 -1)"/><path d="M435.601-514.36c2.21.108 4.438.143 6.668.13a5.596 5.596 0 0 1-.02-.19c-2.235.005-4.466-.038-6.687-.143.012.067.025.135.04.203z" style="fill:#650000;fill-opacity:1;fill-rule:nonzero;stroke:none" transform="scale(1 -1)"/><path d="M435.562-514.563c2.221.105 4.452.149 6.687.142a5.77 5.77 0 0 1-.015-.191c-2.238 0-4.474-.052-6.702-.154l.03.203z" style="fill:#500;fill-opacity:1;fill-rule:nonzero;stroke:none" transform="scale(1 -1)"/><path d="M435.532-514.766c2.228.102 4.464.155 6.702.154-.003-.065-.006-.129-.007-.193a152.213 152.213 0 0 1-6.717-.164c.006.067.013.135.022.203z" style="fill:#490000;fill-opacity:1;fill-rule:nonzero;stroke:none" transform="scale(1 -1)"/><path d="M442.478-513.277c2.19-.043 4.382-.12 6.555-.128a8.635 8.635 0 0 1-.045-.383c-2.183.026-4.4.095-6.614.127.03.127.065.255.104.384z" style="fill:#b00005;fill-opacity:1;fill-rule:nonzero;stroke:none" transform="scale(1 -1)"/><path d="M442.374-513.66c2.215-.033 4.43-.102 6.614-.128a8.72 8.72 0 0 1-.027-.397c-2.208.061-4.438.125-6.663.144.02.127.046.253.076.38z" style="fill:#8e0000;fill-opacity:1;fill-rule:nonzero;stroke:none" transform="scale(1 -1)"/><path d="M442.298-514.04c2.225-.02 4.455-.084 6.663-.145a7.57 7.57 0 0 1-.01-.397c-2.233.096-4.469.155-6.702.161.011.127.028.254.049.38z" style="fill:#6b0000;fill-opacity:1;fill-rule:nonzero;stroke:none" transform="scale(1 -1)"/><path d="M442.249-514.42c2.233-.008 4.47-.066 6.703-.162l.004-.194c-2.241.108-4.483.163-6.722.164.004.064.01.128.015.191z" style="fill:#500000;fill-opacity:1;fill-rule:nonzero;stroke:none" transform="scale(1 -1)"/><path d="M442.234-514.612c2.239-.001 4.48-.056 6.722-.164.002-.064.005-.126.009-.188-2.244.113-4.492.163-6.737.159 0 .064.004.129.007.193z" style="fill:#480000;fill-opacity:1;fill-rule:nonzero;stroke:none" transform="scale(1 -1)"/><path d="M449.033-513.405c2.706-.014 5.335-.403 7.96-.913.013-.103.025-.213.036-.327-2.64.483-5.328.825-8.04.857.012.131.026.259.044.383z" style="fill:#a60001;fill-opacity:1;fill-rule:nonzero;stroke:none" transform="scale(1 -1)"/><path d="M448.988-513.788c2.713-.032 5.402-.374 8.041-.857l.04-.352c-2.675.426-5.38.737-8.108.812.006.134.015.266.027.397z" style="fill:#840000;fill-opacity:1;fill-rule:nonzero;stroke:none" transform="scale(1 -1)"/><path d="M448.96-514.185c2.73-.075 5.434-.386 8.11-.812.014-.118.03-.237.047-.351-2.708.368-5.422.647-8.165.766 0 .131.003.264.01.397z" style="fill:#650000;fill-opacity:1;fill-rule:nonzero;stroke:none" transform="scale(1 -1)"/><path d="M448.952-514.582c2.743-.119 5.457-.398 8.165-.766l.03-.168c-2.72.349-5.444.607-8.191.74l-.004.194z" style="fill:#4e0000;fill-opacity:1;fill-rule:nonzero;stroke:none" transform="scale(1 -1)"/><path d="M448.956-514.776a103.76 103.76 0 0 0 8.191-.74 3.34 3.34 0 0 1 .035-.16 110.32 110.32 0 0 1-8.217.712 5.675 5.675 0 0 0-.01.188z" style="fill:#470000;fill-opacity:1;fill-rule:nonzero;stroke:none" transform="scale(1 -1)"/><path d="M456.993-514.318c.776-.152 1.554-.315 2.333-.482.022-.097.042-.197.063-.298-.79.157-1.577.308-2.36.453-.011.114-.023.224-.036.327z" style="fill:#a40000;fill-opacity:1;fill-rule:nonzero;stroke:none" transform="scale(1 -1)"/><path d="M457.03-514.645c.782-.145 1.57-.296 2.359-.453l.066-.306c-.797.145-1.594.281-2.386.407l-.04.352z" style="fill:#820000;fill-opacity:1;fill-rule:nonzero;stroke:none" transform="scale(1 -1)"/><path d="M457.07-514.997c.791-.126 1.588-.262 2.385-.407.023-.103.045-.205.07-.306-.8.131-1.603.253-2.408.362-.018.114-.033.233-.048.351z" style="fill:#640000;fill-opacity:1;fill-rule:nonzero;stroke:none" transform="scale(1 -1)"/><path d="M457.117-515.348c.805-.109 1.608-.23 2.407-.362l.037-.15c-.801.125-1.608.241-2.414.344l-.03.168z" style="fill:#4d0000;fill-opacity:1;fill-rule:nonzero;stroke:none" transform="scale(1 -1)"/><path d="M457.147-515.516a85.173 85.173 0 0 0 2.414-.345l.04-.148c-.804.122-1.61.232-2.42.333a3.46 3.46 0 0 0-.034.16z" style="fill:#470000;fill-opacity:1;fill-rule:nonzero;stroke:none" transform="scale(1 -1)"/><path d="M459.326-514.8c.78-.167 1.562-.338 2.346-.507.03-.092.057-.184.086-.275-.787.165-1.578.327-2.37.484-.02.101-.04.2-.062.298z" style="fill:#a80002;fill-opacity:1;fill-rule:nonzero;stroke:none" transform="scale(1 -1)"/><path d="M459.389-515.098c.79-.157 1.582-.32 2.369-.484a28.7 28.7 0 0 0 .086-.274c-.795.156-1.592.307-2.389.452l-.066.306z" style="fill:#870000;fill-opacity:1;fill-rule:nonzero;stroke:none" transform="scale(1 -1)"/><path d="M459.455-515.404c.797-.145 1.594-.296 2.389-.452.028-.091.056-.183.086-.274-.802.147-1.604.288-2.406.42a14.45 14.45 0 0 0-.069.306z" style="fill:#670000;fill-opacity:1;fill-rule:nonzero;stroke:none" transform="scale(1 -1)"/><path d="M459.524-515.71c.802-.132 1.604-.273 2.406-.42.013-.045.028-.09.043-.136-.805.143-1.608.279-2.412.405l-.037.15z" style="fill:#4e0000;fill-opacity:1;fill-rule:nonzero;stroke:none" transform="scale(1 -1)"/><path d="M459.561-515.86c.804-.127 1.607-.263 2.412-.406.013-.046.028-.092.043-.138a91.34 91.34 0 0 1-2.414.395 6.454 6.454 0 0 0-.04.148z" style="fill:#470000;fill-opacity:1;fill-rule:nonzero;stroke:none" transform="scale(1 -1)"/><path d="M432.76-515.431a3.979 3.979 0 0 1-.121-.613c.093.051.193.094.295.13.018.22.053.432.107.63a2.016 2.016 0 0 1-.28-.147z" style="fill:#e60013;fill-opacity:1;fill-rule:nonzero;stroke:none" transform="scale(1 -1)"/><path d="M433.04-515.283a3.476 3.476 0 0 1-.106-.632c.103.036.21.065.32.089.011.229.04.448.092.652a2.643 2.643 0 0 1-.305-.11z" style="fill:#c7000c;fill-opacity:1;fill-rule:nonzero;stroke:none" transform="scale(1 -1)"/><path d="M432.639-516.044a4.378 4.378 0 0 1-.026-.654c.104.038.211.07.321.096a4.75 4.75 0 0 0 0 .687 1.994 1.994 0 0 1-.295-.129z" style="fill:#e30012;fill-opacity:1;fill-rule:nonzero;stroke:none" transform="scale(1 -1)"/><path d="M432.934-515.915a4.75 4.75 0 0 1 0-.687c.11.026.225.048.341.065a5.014 5.014 0 0 0-.02.71 2.555 2.555 0 0 1-.32-.088z" style="fill:#c5000c;fill-opacity:1;fill-rule:nonzero;stroke:none" transform="scale(1 -1)"/><path d="M433.346-515.174a3.368 3.368 0 0 1-.091-.652c.11.024.224.042.342.056.005.234.028.461.074.674a3.452 3.452 0 0 1-.325-.077z" style="fill:#a80001;fill-opacity:1;fill-rule:nonzero;stroke:none" transform="scale(1 -1)"/><path d="M433.67-515.096a3.556 3.556 0 0 1-.073-.674c.117.013.237.023.36.03 0 .24.018.473.057.695a4.666 4.666 0 0 1-.343-.051z" style="fill:#8b0000;fill-opacity:1;fill-rule:nonzero;stroke:none" transform="scale(1 -1)"/><path d="M433.255-515.826a4.999 4.999 0 0 1 .02-.711c.117.017.237.03.358.04a5.59 5.59 0 0 0-.036.727 3.712 3.712 0 0 1-.342-.056z" style="fill:#a70001;fill-opacity:1;fill-rule:nonzero;stroke:none" transform="scale(1 -1)"/><path d="M433.597-515.77c-.005-.236.009-.48.036-.727.122.01.246.016.37.02-.03.25-.047.497-.046.737a5.344 5.344 0 0 1-.36-.03z" style="fill:#8b0000;fill-opacity:1;fill-rule:nonzero;stroke:none" transform="scale(1 -1)"/><path d="M432.613-516.698c.207.075.43.126.662.16.024-.243.063-.491.114-.74a6.291 6.291 0 0 1-.703-.11 5.045 5.045 0 0 0-.073.69z" style="fill:#d80010;fill-opacity:1;fill-rule:nonzero;stroke:none" transform="scale(1 -1)"/><path d="M432.686-517.388c.225.05.46.085.703.11.05-.25.115-.498.189-.743a9.287 9.287 0 0 1-.718-.088 5.897 5.897 0 0 0-.174.72z" style="fill:#c5000c;fill-opacity:1;fill-rule:nonzero;stroke:none" transform="scale(1 -1)"/><path d="M433.275-516.537c.024-.244.063-.493.114-.741.12.012.244.022.368.03-.054.25-.097.503-.124.751a5.913 5.913 0 0 1-.358-.04z" style="fill:#a40000;fill-opacity:1;fill-rule:nonzero;stroke:none" transform="scale(1 -1)"/><path d="M433.633-516.497c.027-.248.07-.5.124-.75.124.007.249.013.376.018a8.914 8.914 0 0 0-.13.753 7.736 7.736 0 0 1-.37-.02z" style="fill:#8b0000;fill-opacity:1;fill-rule:nonzero;stroke:none" transform="scale(1 -1)"/><path d="M433.389-517.278c.242.024.49.04.744.049.054-.252.119-.502.19-.747-.253-.01-.5-.024-.745-.045a8.239 8.239 0 0 0-.19.743z" style="fill:#9c0000;fill-opacity:1;fill-rule:nonzero;stroke:none" transform="scale(1 -1)"/><path d="M434.014-515.045c-.079-.445-.072-.932-.01-1.431.125.005.253.007.38.009-.064.498-.079.99-.013 1.455a7.12 7.12 0 0 1-.358-.032z" style="fill:#730000;fill-opacity:1;fill-rule:nonzero;stroke:none" transform="scale(1 -1)"/><path d="M434.371-515.012a5.473 5.473 0 0 1 .014-1.455h.388a6.075 6.075 0 0 0-.032 1.474c-.126-.005-.249-.01-.37-.019z" style="fill:#5f0000;fill-opacity:1;fill-rule:nonzero;stroke:none" transform="scale(1 -1)"/><path d="M434.741-514.993a6.075 6.075 0 0 1 .032-1.474h.393a6.42 6.42 0 0 0-.044 1.486 21.404 21.404 0 0 1-.38-.012z" style="fill:#500000;fill-opacity:1;fill-rule:nonzero;stroke:none" transform="scale(1 -1)"/><path d="M435.122-514.98a6.425 6.425 0 0 1 .044-1.487c.13 0 .262.001.391.004a6.76 6.76 0 0 0-.047 1.493l-.388-.011z" style="fill:#480000;fill-opacity:1;fill-rule:nonzero;stroke:none" transform="scale(1 -1)"/><path d="M434.004-516.476c.031-.25.075-.502.129-.753.127.004.256.008.384.01-.054.25-.1.502-.132.752a11.893 11.893 0 0 1-.381-.01z" style="fill:#750000;fill-opacity:1;fill-rule:nonzero;stroke:none" transform="scale(1 -1)"/><path d="M434.385-516.467c.033-.25.078-.501.132-.752l.39.005c-.055.249-.1.498-.134.747h-.388z" style="fill:#610000;fill-opacity:1;fill-rule:nonzero;stroke:none" transform="scale(1 -1)"/><path d="M434.133-517.23c.054-.25.119-.501.19-.746.125.005.252.009.38.011-.068.246-.13.496-.186.746a16.193 16.193 0 0 1-.384-.01z" style="fill:#730000;fill-opacity:1;fill-rule:nonzero;stroke:none" transform="scale(1 -1)"/><path d="M434.517-517.22c.055-.25.118-.5.186-.745l.385.007c-.067.247-.128.495-.182.744-.13 0-.26-.003-.389-.005z" style="fill:#610000;fill-opacity:1;fill-rule:nonzero;stroke:none" transform="scale(1 -1)"/><path d="M434.773-516.467c.068-.498.182-.998.315-1.49l.388.004c-.13.493-.244.99-.31 1.486h-.393z" style="fill:#520000;fill-opacity:1;fill-rule:nonzero;stroke:none" transform="scale(1 -1)"/><path d="M435.166-516.467c.066-.496.18-.993.31-1.486l.393.005c-.132.493-.244.989-.311 1.485-.13-.003-.261-.004-.392-.004z" style="fill:#480000;fill-opacity:1;fill-rule:nonzero;stroke:none" transform="scale(1 -1)"/><path d="m432.86-518.109.21-.657c.242.019.488.033.735.043-.08.24-.159.48-.227.702a9.287 9.287 0 0 1-.718-.088z" style="fill:#a70001;fill-opacity:1;fill-rule:nonzero;stroke:none" transform="scale(1 -1)"/><path d="M433.578-518.02c.068-.224.148-.464.227-.703.248.01.497.017.748.021-.082.246-.162.493-.23.726-.253-.01-.5-.024-.745-.045z" style="fill:#8c0000;fill-opacity:1;fill-rule:nonzero;stroke:none" transform="scale(1 -1)"/><path d="M433.07-518.766c.242.019.488.033.735.043l.117-.357c-.25-.004-.5-.01-.75-.016-.033.11-.069.22-.103.33z" style="fill:#7c0000;fill-opacity:1;fill-rule:nonzero;stroke:none" transform="scale(1 -1)"/><path d="m433.173-519.096.749.016.111-.345h-.756l-.104.33z" style="fill:#630000;fill-opacity:1;fill-rule:nonzero;stroke:none" transform="scale(1 -1)"/><path d="M433.805-518.723c.248.01.497.017.748.021l.122-.367a109.24 109.24 0 0 1-.753-.011l-.117.357z" style="fill:#710000;fill-opacity:1;fill-rule:nonzero;stroke:none" transform="scale(1 -1)"/><path d="m433.922-519.08.753.011c.04-.12.078-.24.114-.356h-.756l-.111.345z" style="fill:#5d0000;fill-opacity:1;fill-rule:nonzero;stroke:none" transform="scale(1 -1)"/><path d="M434.322-517.976c.069-.233.149-.48.23-.726.253.005.506.007.76.01-.079.245-.156.492-.224.734a29.006 29.006 0 0 1-.766-.018z" style="fill:#6c0000;fill-opacity:1;fill-rule:nonzero;stroke:none" transform="scale(1 -1)"/><path d="M435.088-517.958c.068-.242.145-.489.224-.735l.382.002c-.075.246-.15.492-.218.738l-.388-.005z" style="fill:#500000;fill-opacity:1;fill-rule:nonzero;stroke:none" transform="scale(1 -1)"/><path d="M435.476-517.953c.068-.246.143-.492.218-.738l.386.002a29.02 29.02 0 0 0-.21.74l-.394-.004z" style="fill:#480000;fill-opacity:1;fill-rule:nonzero;stroke:none" transform="scale(1 -1)"/><path d="M434.553-518.702c.082-.245.164-.491.236-.723h.756c-.074.24-.154.487-.233.732a47.7 47.7 0 0 1-.76-.01z" style="fill:#5e0000;fill-opacity:1;fill-rule:nonzero;stroke:none" transform="scale(1 -1)"/><path d="M435.312-518.693c.079-.245.159-.491.233-.732h.758c-.075.245-.15.49-.223.737l-.768-.005z" style="fill:#4c0000;fill-opacity:1;fill-rule:nonzero;stroke:none" transform="scale(1 -1)"/><path d="M435.51-514.97c7.195.332 14.502.194 21.672-.706.244-1.056.533-2.7.86-3.749h-21.74c-.445 1.466-.923 2.96-.792 4.456z" style="fill:#400;fill-opacity:1;fill-rule:nonzero;stroke:none" transform="scale(1 -1)"/><path d="M457.182-515.676a93.386 93.386 0 0 0 4.834-.728c.313-1.005.628-2.013.94-3.021h-4.913c-.328 1.05-.617 2.693-.861 3.749z" style="fill:#400;fill-opacity:1;fill-rule:nonzero;stroke:none" transform="scale(1 -1)"/></g></g><path d="M0 0c-.732 0-1.139.587-.908 1.32l7.797 24.992H-3.932l-8.65-27.733c-.905-2.895.715-5.252 3.608-5.252H15.51L17.588 0Z" style="fill:#f7f7f8;fill-opacity:1;fill-rule:nonzero;stroke:none" transform="translate(446.255 521.782)"/></g><g clip-path="url(#D)" transform="matrix(1.12188 0 0 -1.12188 -478.513 629.163)"><path d="M448.768 521.22s6.808-2.038 7.353-5.439h5.297l1.7 5.439z" style="fill:url(#E);stroke:none"/></g><g clip-path="url(#F)" transform="matrix(1.12188 0 0 -1.12188 -478.513 629.163)"><path d="M0 0s-.1.168-.056.305l.673 2.148H.518L-.137.344s-.102-.336.19-.751z" style="fill:#fff;fill-opacity:1;fill-rule:nonzero;stroke:none" transform="translate(444.785 521.84)"/><path d="M0 0c-2.781 0-3.953 2.064-3.165 4.601l7.523 24.11h-.204L-3.428 4.408c-.789-2.536.624-4.601 3.165-4.601h.625L.483 0Z" style="fill:#fff;fill-opacity:1;fill-rule:nonzero;stroke:none" transform="translate(437.743 515.765)"/><path d="M0 0h-20.769l-.121-.193H-.061Z" style="fill:#fff;fill-opacity:1;fill-rule:nonzero;stroke:none" transform="translate(458.995 515.765)"/></g><g clip-path="url(#G)" transform="matrix(1.12188 0 0 -1.12188 -478.513 629.163)"><path d="m442.883 547.644-4.606-14.758c4.323 8.374 10.983 14.758 10.983 14.758z" style="fill:url(#H);stroke:none"/></g></svg>